REM DIRINDEX 1\5,1\2\6,1\2\7,1\3\8,1\3\9,1\3\10,1\3\11,1\4\12,1\4\13,1\4\14
REM DIRNAME folder01,folder02,folder03,folder04,folder05,folder06,folder07,folder08,folder09,folder10,folder11,folder12,folder13,folder14
TITLE ""
FILE "4Q_t_273-288.mp3" MP3
  TRACK 01 AUDIO
    TITLE "6:cjc042_1542"
    INDEX 01 00:00:00
  TRACK 02 AUDIO
    TITLE "0:"
    INDEX 01 00:00:66
  TRACK 03 AUDIO
    TITLE "7:cjc042_1543"
    INDEX 01 00:01:42
  TRACK 04 AUDIO
    TITLE "0:"
    INDEX 01 00:04:23
  TRACK 05 AUDIO
    TITLE "6:cjc042_1544"
    INDEX 01 00:04:68
  TRACK 06 AUDIO
    TITLE "0:"
    INDEX 01 00:05:73
  TRACK 07 AUDIO
    TITLE "7:cjc042_1545"
    INDEX 01 00:06:45
  TRACK 08 AUDIO
    TITLE "0:"
    INDEX 01 00:11:33
  TRACK 09 AUDIO
    TITLE "6:cjc042_1546"
    INDEX 01 00:12:09
  TRACK 10 AUDIO
    TITLE "0:"
    INDEX 01 00:13:26
  TRACK 11 AUDIO
    TITLE "7:cjc042_1547"
    INDEX 01 00:14:00
  TRACK 12 AUDIO
    TITLE "0:"
    INDEX 01 00:22:03
  TRACK 13 AUDIO
    TITLE "6:cjc042_1548"
    INDEX 01 00:22:48
  TRACK 14 AUDIO
    TITLE "0:"
    INDEX 01 00:23:59
  TRACK 15 AUDIO
    TITLE "7:cjc042_1549"
    INDEX 01 00:24:33
  TRACK 16 AUDIO
    TITLE "0:"
    INDEX 01 00:27:08
  TRACK 17 AUDIO
    TITLE "6:cjc042_1550"
    INDEX 01 00:27:51
  TRACK 18 AUDIO
    TITLE "0:"
    INDEX 01 00:28:70
  TRACK 19 AUDIO
    TITLE "7:cjc042_1551"
    INDEX 01 00:29:40
  TRACK 20 AUDIO
    TITLE "0:"
    INDEX 01 00:31:51
  TRACK 21 AUDIO
    TITLE "6:cjc042_1552"
    INDEX 01 00:32:23
  TRACK 22 AUDIO
    TITLE "0:"
    INDEX 01 00:33:34
  TRACK 23 AUDIO
    TITLE "7:cjc042_1553"
    INDEX 01 00:34:04
  TRACK 24 AUDIO
    TITLE "0:"
    INDEX 01 00:35:72
  TRACK 25 AUDIO
    TITLE "6:cjc042_1554"
    INDEX 01 00:36:42
  TRACK 26 AUDIO
    TITLE "0:"
    INDEX 01 00:37:69
  TRACK 27 AUDIO
    TITLE "7:cjc042_1555"
    INDEX 01 00:38:41
  TRACK 28 AUDIO
    TITLE "0:"
    INDEX 01 00:39:64
  TRACK 29 AUDIO
    TITLE "6:cjc042_1556"
    INDEX 01 00:40:30
  TRACK 30 AUDIO
    TITLE "0:"
    INDEX 01 00:41:40
  TRACK 31 AUDIO
    TITLE "7:cjc042_1557"
    INDEX 01 00:42:14
  TRACK 32 AUDIO
    TITLE "0:"
    INDEX 01 00:46:06
  TRACK 33 AUDIO
    TITLE "6:cjc042_1558"
    INDEX 01 00:46:49
  TRACK 34 AUDIO
    TITLE "0:"
    INDEX 01 00:47:42
  TRACK 35 AUDIO
    TITLE "7:cjc042_1559"
    INDEX 01 00:48:10
  TRACK 36 AUDIO
    TITLE "0:"
    INDEX 01 00:50:05
  TRACK 37 AUDIO
    TITLE "6:cjc042_1560"
    INDEX 01 00:50:48
  TRACK 38 AUDIO
    TITLE "0:"
    INDEX 01 00:51:71
  TRACK 39 AUDIO
    TITLE "7:cjc042_1561"
    INDEX 01 00:52:43
  TRACK 40 AUDIO
    TITLE "0:"
    INDEX 01 00:55:32
  TRACK 41 AUDIO
    TITLE "6:cjc042_1562"
    INDEX 01 00:56:02
  TRACK 42 AUDIO
    TITLE "0:"
    INDEX 01 00:57:23
  TRACK 43 AUDIO
    TITLE "7:cjc042_1563"
    INDEX 01 00:57:68
  TRACK 44 AUDIO
    TITLE "0:"
    INDEX 01 00:59:12
  TRACK 45 AUDIO
    TITLE "6:cjc042_1564"
    INDEX 01 00:59:59
  TRACK 46 AUDIO
    TITLE "0:"
    INDEX 01 01:01:09
  TRACK 47 AUDIO
    TITLE "7:cjc042_1565"
    INDEX 01 01:01:60
  TRACK 48 AUDIO
    TITLE "0:"
    INDEX 01 01:03:61
  TRACK 49 AUDIO
    TITLE "6:cjc042_1566"
    INDEX 01 01:04:29
  TRACK 50 AUDIO
    TITLE "0:"
    INDEX 01 01:05:44
  TRACK 51 AUDIO
    TITLE "7:cjc042_1567"
    INDEX 01 01:06:14
  TRACK 52 AUDIO
    TITLE "0:"
    INDEX 01 01:08:31
  TRACK 53 AUDIO
    TITLE "6:cjc042_1568"
    INDEX 01 01:09:10
  TRACK 54 AUDIO
    TITLE "0:"
    INDEX 01 01:10:24
  TRACK 55 AUDIO
    TITLE "7:cjc042_1569"
    INDEX 01 01:11:02
  TRACK 56 AUDIO
    TITLE "0:"
    INDEX 01 01:12:11
  TRACK 57 AUDIO
    TITLE "6:cjc042_1570"
    INDEX 01 01:12:54
  TRACK 58 AUDIO
    TITLE "0:"
    INDEX 01 01:13:59
  TRACK 59 AUDIO
    TITLE "7:cjc042_1571"
    INDEX 01 01:14:33
  TRACK 60 AUDIO
    TITLE "0:"
    INDEX 01 01:15:44
  TRACK 61 AUDIO
    TITLE "6:cjc042_1572"
    INDEX 01 01:16:16
  TRACK 62 AUDIO
    TITLE "0:"
    INDEX 01 01:17:26
  TRACK 63 AUDIO
    TITLE "7:cjc042_1573"
    INDEX 01 01:18:00
  TRACK 64 AUDIO
    TITLE "0:"
    INDEX 01 01:22:07
